<svg width="45" height="45" viewBox="0 0 45 45" fill="none" xmlns="http://www.w3.org/2000/svg">
<g clip-path="url(#clip0)">
<path d="M26.9516 15.7324C27.4377 15.7324 27.8323 15.3386 27.8323 14.8535C27.8323 14.3684 27.4377 13.9746 26.9516 13.9746C26.4645 13.9746 26.071 14.3684 26.071 14.8535C26.071 15.3386 26.4645 15.7324 26.9516 15.7324Z" fill="#000049"/>
<path d="M18.1454 15.7324C18.6314 15.7324 19.026 15.3386 19.026 14.8535C19.026 14.3684 18.6314 13.9746 18.1454 13.9746C17.6583 13.9746 17.2647 14.3684 17.2647 14.8535C17.2647 15.3386 17.6583 15.7324 18.1454 15.7324Z" fill="#000049"/>
<path d="M20.1942 21.7736C20.9335 22.1213 21.7257 22.2978 22.5482 22.2978C23.3528 22.2978 24.1295 22.1286 24.8571 21.7948C25.2991 21.5919 25.4924 21.0701 25.2895 20.6289C25.0862 20.1881 24.5633 19.9948 24.1213 20.1977C23.6262 20.4246 23.0968 20.54 22.5482 20.54C21.9871 20.54 21.4477 20.4202 20.9451 20.1836C20.5052 19.9766 19.9802 20.1647 19.7732 20.6039C19.5657 21.043 19.7542 21.5665 20.1942 21.7736Z" fill="#000049"/>
<path d="M41.9697 35.5755C41.9697 30.7426 36.4548 26.9523 31.7277 26.7727L29.3159 24.6101C32.2533 22.4712 34.0362 19.0339 34.0362 15.3809V9.5801C34.0362 4.24931 29.6768 -0.0878906 24.3184 -0.0878906H20.7958C15.4447 -0.0878906 11.1399 4.23386 11.1399 9.5801V15.3809C11.1399 19.0277 12.8991 22.4585 15.7983 24.5936L13.3683 26.7727C8.65146 26.9519 3.12622 30.7326 3.12622 35.5755V44.0333C3.12622 44.5188 3.52044 44.9122 4.00685 44.9122H41.0891C41.5755 44.9122 41.9697 44.5188 41.9697 44.0333V35.5755ZM20.5974 39.1114H24.4938L25.4171 43.1544H19.6472L20.5974 39.1114ZM24.5695 37.3536H20.5416L19.866 35.2528L22.5485 33.9142L25.2884 35.282L24.5695 37.3536ZM22.5482 31.2733L19.488 26.3875C20.4818 26.6632 21.5145 26.8064 22.5571 26.8064C23.5898 26.8064 24.6149 26.6659 25.6035 26.3947L22.5482 31.2733ZM23.8086 32.578L28.0366 25.8258L30.3169 27.8707L27.4153 34.3783L23.8086 32.578ZM20.7958 1.66993H24.3184C28.7057 1.66993 32.2749 5.21817 32.2749 9.5801V10.3066L30.6214 7.93009C30.4717 7.71482 30.2333 7.57749 29.9716 7.55552C29.7094 7.53355 29.4521 7.62933 29.2684 7.81679C27.4783 9.64396 25.4057 10.459 22.5485 10.459C19.6916 10.459 17.6187 9.64396 15.8272 7.81679C15.6428 7.6283 15.3831 7.53286 15.1206 7.55586C14.8578 7.57887 14.6191 7.71825 14.4705 7.93592L12.9012 10.231V9.5801C12.9012 5.21817 16.4426 1.66993 20.7958 1.66993ZM12.9012 15.3809V13.3494L15.347 9.77236C17.3064 11.4358 19.6218 12.2168 22.5485 12.2168C25.4783 12.2168 27.7955 11.434 29.7552 9.76721L32.2749 13.3886V15.3809C32.2749 20.6444 27.9644 25.0489 22.5571 25.0489C17.1674 25.0489 12.9012 20.6581 12.9012 15.3809ZM17.0594 25.8262L21.2881 32.578L17.6806 34.3783L14.779 27.8707L17.0594 25.8262ZM4.88747 35.5755C4.88747 31.9548 9.29748 28.8285 13.1513 28.5443L16.446 35.9329C16.5437 36.152 16.7271 36.3219 16.9534 36.4029C17.1798 36.484 17.4292 36.4688 17.6445 36.3617L18.272 36.0483L18.9864 38.2689L17.8382 43.1544H4.88747V35.5755ZM40.2085 43.1544H27.2234L26.1109 38.2823L26.877 36.0747L27.4515 36.3617C27.6682 36.4699 27.9183 36.4833 28.1425 36.4029C28.3689 36.3219 28.5522 36.152 28.6499 35.9329L31.9447 28.5443C35.7985 28.8289 40.2085 31.9548 40.2085 35.5755V43.1544Z" fill="#000049"/>
<path d="M33.9966 39.1113H30.4741C29.9877 39.1113 29.5935 39.5048 29.5935 39.9902C29.5935 40.4757 29.9877 40.8691 30.4741 40.8691H33.9966C34.4831 40.8691 34.8773 40.4757 34.8773 39.9902C34.8773 39.5048 34.4831 39.1113 33.9966 39.1113Z" fill="#000049"/>
<path d="M37.4706 39.1113C37.9567 39.1113 38.3513 39.5051 38.3513 39.9902C38.3513 40.4753 37.9567 40.8691 37.4706 40.8691C36.9846 40.8691 36.59 40.4753 36.59 39.9902C36.59 39.5051 36.9846 39.1113 37.4706 39.1113Z" fill="#000049"/>
</g>
<defs>
<clipPath id="clip0">
<rect width="45" height="45" fill="white"/>
</clipPath>
</defs>
</svg>
