<svg width="45" height="45" viewBox="0 0 45 45" fill="none" xmlns="http://www.w3.org/2000/svg">
<g clip-path="url(#clip0)">
<path d="M19.0723 32.0801C19.5574 32.0801 19.9512 31.6863 19.9512 31.2012C19.9512 30.7161 19.5574 30.3223 19.0723 30.3223C18.5872 30.3223 18.1934 30.7161 18.1934 31.2012C18.1934 31.6863 18.5872 32.0801 19.0723 32.0801Z" fill="#000049"/>
<path d="M0.345353 34.1078L10.8922 44.6547C11.2356 44.998 11.7918 44.998 12.1351 44.6547L17.9359 38.8539C18.2792 38.5106 18.2792 37.9544 17.9359 37.6111L17.6784 37.3536H30.3477C31.4604 37.3536 32.5223 36.9364 33.3411 36.1763L44.0037 26.1832C45.0244 25.2353 45.3626 23.7295 44.8449 22.4365C44.4706 21.5006 43.7064 20.7844 42.7485 20.4717C41.7903 20.1582 40.7511 20.2852 39.8962 20.8195C39.8907 20.8229 37.529 22.3727 37.529 22.3727C37.5129 17.6084 34.6334 12.5279 30.6697 10.2406C30.896 9.98075 31.0738 9.67313 31.1871 9.32878C31.6406 7.94896 30.8867 6.45551 29.5048 5.99923C29.4616 5.98481 29.4183 5.97211 29.3751 5.95872L31.6376 1.89446C31.7677 1.66065 31.7845 1.38016 31.6825 1.13297C31.5809 0.885431 31.3722 0.697633 31.115 0.623132C29.4928 0.151406 27.8068 -0.0878906 26.1035 -0.0878906C24.4006 -0.0878906 22.7142 0.151406 21.092 0.622788C20.8349 0.697633 20.6261 0.885087 20.5242 1.13262C20.4226 1.38016 20.439 1.66065 20.5695 1.89446L22.832 5.95872C22.7881 5.97245 22.7441 5.9855 22.7002 5.99992C21.3203 6.45551 20.5668 7.94862 21.0203 9.32946C21.1336 9.67313 21.3128 9.97972 21.5397 10.24C17.517 12.5612 14.6777 17.6938 14.6777 22.4121C14.6777 22.5409 14.6808 22.6679 14.6849 22.7939C13.1108 23.2234 11.6472 24.0058 10.4164 25.0835L7.74534 27.4205L7.38897 27.0642C7.04565 26.7208 6.48947 26.7208 6.14614 27.0642L0.345353 32.865C0.00202927 33.2083 0.00202927 33.7645 0.345353 34.1078ZM22.661 2.03762C23.7871 1.79318 24.9407 1.66992 26.1035 1.66992C27.2664 1.66992 28.4199 1.79318 29.5464 2.03762L27.5877 5.55566C26.6003 5.41798 25.6061 5.41798 24.6197 5.55566L22.661 2.03762ZM23.2488 7.66984C25.0523 7.07967 27.0185 7.03504 28.9559 7.66915C29.4169 7.82125 29.6686 8.31975 29.5172 8.7798C29.4032 9.12622 29.0942 9.36139 28.7361 9.38234C27.003 8.8313 25.203 8.83027 23.4706 9.38062C23.4706 9.38062 23.4706 9.38062 23.4702 9.38062C23.1091 9.35796 22.8025 9.12175 22.6899 8.78015C22.5385 8.31941 22.7901 7.8209 23.2488 7.66984ZM23.7349 11.146C25.259 10.597 26.8379 10.584 28.3657 11.1089C32.4492 12.5131 35.7715 17.5836 35.7715 22.4121C35.7715 22.8214 35.7458 23.2114 35.695 23.576L31.4704 26.3476C30.8163 25.5374 29.8252 25.0489 28.7403 25.0489H26.9824V24.0189C28.0055 23.656 28.7403 22.6789 28.7403 21.5332C28.7403 20.0793 27.5575 18.8965 26.1035 18.8965C25.6191 18.8965 25.2246 18.5024 25.2246 18.0176C25.2246 17.5328 25.6191 17.1387 26.1035 17.1387C26.4149 17.1387 26.7435 17.2977 27.0542 17.5981C27.403 17.9355 27.9595 17.9263 28.297 17.5778C28.6345 17.229 28.6252 16.6725 28.2764 16.335C27.8304 15.9031 27.3841 15.659 26.9824 15.5258V14.502C26.9824 14.0165 26.589 13.6231 26.1035 13.6231C25.6181 13.6231 25.2246 14.0165 25.2246 14.502V15.5319C24.2019 15.8948 23.4668 16.8719 23.4668 18.0176C23.4668 19.4716 24.6496 20.6543 26.1035 20.6543C26.5883 20.6543 26.9824 21.0485 26.9824 21.5332C26.9824 22.018 26.5883 22.4121 26.1035 22.4121C25.7279 22.4121 25.3228 22.1759 24.9623 21.7471C24.6499 21.3756 24.0954 21.3276 23.724 21.64C23.3525 21.9524 23.3044 22.5069 23.6168 22.8784C24.0865 23.4373 24.6393 23.8266 25.2246 24.023V25.0489H24.9321C24.5002 25.0489 24.3062 24.7673 24.002 24.5706C22.145 23.1788 19.8447 22.4121 17.5246 22.4121C17.1617 22.4121 16.7981 22.431 16.4362 22.4678C16.4362 22.4492 16.4355 22.431 16.4355 22.4121C16.4355 17.6513 19.7102 12.5976 23.7349 11.146ZM11.5741 26.406C13.2255 24.9599 15.3476 24.17 17.5246 24.17C19.4671 24.17 21.3928 24.8116 22.9467 25.9765C23.1709 26.1077 23.795 26.8067 24.9318 26.8067H28.7403C29.7407 26.8067 30.4981 27.62 30.4981 28.5645C30.4981 29.5337 29.7095 30.3223 28.7403 30.3223H22.5879C22.1024 30.3223 21.709 30.7157 21.709 31.2012C21.709 31.6867 22.1024 32.0801 22.5879 32.0801H28.7403C30.6787 32.0801 32.2559 30.5029 32.2559 28.5645C32.2559 28.363 32.238 28.1642 32.2044 27.9685L40.8352 22.3057C41.2458 22.052 41.744 21.9926 42.2026 22.1423C42.6641 22.2933 43.0325 22.6384 43.2127 23.0895C43.4664 23.7226 43.3071 24.4316 42.8045 24.8981L32.1422 34.8909C31.6527 35.3455 31.0155 35.5957 30.3477 35.5957H15.9206L8.99126 28.6661L11.5741 26.406ZM6.76756 28.9284L16.0716 38.2325L11.5137 42.7904L2.2096 33.4864L6.76756 28.9284Z" fill="#000049"/>
</g>
<defs>
<clipPath id="clip0">
<rect width="45" height="45" fill="white"/>
</clipPath>
</defs>
</svg>
