<svg width="45" height="45" viewBox="0 0 45 45" fill="none" xmlns="http://www.w3.org/2000/svg">
<path d="M6.32812 12.3047V32.2741L4.23239 42.7527C4.21199 42.8547 4.21447 42.96 4.23967 43.0609C4.26486 43.1618 4.31214 43.2559 4.3781 43.3364C4.44405 43.4168 4.52704 43.4817 4.62107 43.5262C4.7151 43.5707 4.81784 43.5938 4.92187 43.5938H7.03125C7.16182 43.5938 7.28982 43.5574 7.4009 43.4888C7.51197 43.4201 7.60174 43.3219 7.66013 43.2051L11.8789 34.7676C11.9068 34.7117 11.9272 34.6523 11.9395 34.5911L12.085 33.8635L12.6803 35.3517L14.0738 43.0164C14.1033 43.1784 14.1887 43.3249 14.3151 43.4304C14.4415 43.536 14.601 43.5938 14.7656 43.5938H16.875C17.0615 43.5937 17.2403 43.5197 17.3722 43.3878C17.504 43.2559 17.5781 43.0771 17.5781 42.8906V35.1562C17.5781 35.1067 17.5729 35.0574 17.5625 35.009L15.4688 25.2381V20.9228C16.1661 21.0366 16.8715 21.0937 17.5781 21.0938H20.3906C20.5771 21.0937 20.7559 21.0197 20.8878 20.8878C21.0197 20.7559 21.0937 20.5771 21.0938 20.3906V19.6875H26.7188C26.9052 19.6875 27.0841 19.6134 27.2159 19.4815C27.3478 19.3497 27.4219 19.1709 27.4219 18.9844V7.03125C27.4219 6.84477 27.3478 6.66594 27.2159 6.53408C27.0841 6.40222 26.9052 6.32813 26.7188 6.32813H17.5781C17.3917 6.32813 17.2128 6.40222 17.081 6.53408C16.9491 6.66594 16.875 6.84477 16.875 7.03125V13.3594L15.4663 12.3028C15.4401 11.4315 15.1464 10.5893 14.625 9.89061L13.6173 8.54693C13.9083 8.09504 14.0629 7.56878 14.0625 7.03125V3.72849C14.0625 3.30816 13.9484 2.89572 13.7324 2.53514C13.5164 2.17456 13.2066 1.87936 12.836 1.68103C12.4654 1.4827 12.048 1.38866 11.6281 1.40896C11.2083 1.42925 10.8019 1.56311 10.4521 1.79626L8.75061 2.9306C8.65429 2.99481 8.57532 3.0818 8.5207 3.18385C8.46608 3.28591 8.4375 3.39987 8.4375 3.51563V7.03125C8.43699 7.49573 8.55224 7.95301 8.77284 8.36175L8.01564 8.92965C7.49284 9.3237 7.06841 9.83348 6.77563 10.419C6.48285 11.0046 6.32968 11.65 6.32812 12.3047ZM6.59669 42.1875H5.77958L7.72073 32.4817C7.72981 32.4363 7.73438 32.3901 7.73437 32.3438V22.5H14.0625V25.0213L12.9117 26.172C12.3221 26.7605 11.9206 27.5108 11.758 28.3277L10.579 34.2229L6.59669 42.1875ZM16.1719 42.1875H15.3525L14.0512 35.0305C14.0428 34.9842 14.0297 34.9388 14.0122 34.8952L12.606 31.3795L12.5797 31.39L13.137 28.6036C13.2453 28.0589 13.513 27.5587 13.9061 27.1664L14.3489 26.7236L16.1719 35.2308V42.1875ZM14.0625 21.0938H7.73437V16.6365C9.41282 18.5483 11.6117 19.93 14.0625 20.6126V21.0938ZM19.6875 19.6875H18.2813V18.2812H19.6875V19.6875ZM18.2813 7.73438H26.0156V18.2812H21.0938V17.5781C21.0937 17.3916 21.0197 17.2128 20.8878 17.081C20.7559 16.9491 20.5771 16.875 20.3906 16.875H18.2813V7.73438ZM16.875 16.5321C16.3701 16.3046 15.8973 16.0117 15.4688 15.661V14.0625L16.875 15.1172V16.5321ZM9.84375 7.03125V5.625H12.6563V7.03125C12.6563 7.40421 12.5081 7.7619 12.2444 8.02562C11.9806 8.28934 11.623 8.4375 11.25 8.4375C10.877 8.4375 10.5194 8.28934 10.2556 8.02562C9.99191 7.7619 9.84375 7.40421 9.84375 7.03125ZM9.84375 3.89191L11.2322 2.96622C11.3702 2.8743 11.5305 2.82154 11.6961 2.81356C11.8617 2.80558 12.0263 2.84269 12.1725 2.92093C12.3187 2.99917 12.4409 3.1156 12.526 3.25782C12.6112 3.40003 12.6562 3.5627 12.6563 3.72849V4.21875H9.84375V3.89191ZM8.85936 10.0547L9.73432 9.3985C10.1557 9.66932 10.6419 9.82234 11.1424 9.84166C11.643 9.86099 12.1395 9.74591 12.5805 9.50839L13.5001 10.7343C13.864 11.2218 14.0613 11.8135 14.0625 12.4218V14.0422C13.8816 13.7459 13.7256 13.4351 13.5962 13.113L13.3091 12.3952L12.0034 12.9173L12.2905 13.6351C12.6813 14.6067 13.2644 15.4891 14.0048 16.2296C14.7452 16.97 15.6277 17.5531 16.5992 17.9438L16.875 18.0541V19.6656C15.3297 19.5727 13.8182 19.1738 12.4283 18.4921C11.0384 17.8103 9.79767 16.8594 8.77816 15.6944L7.73437 14.5015V12.3047C7.7354 11.8682 7.83751 11.438 8.03269 11.0476C8.22787 10.6573 8.51082 10.3174 8.85936 10.0547Z" fill="#000049"/>
<path d="M24.6094 9.14062H21.0938V10.5469H24.6094V9.14062Z" fill="#000049"/>
<path d="M24.6094 11.9531H19.6875V13.3594H24.6094V11.9531Z" fill="#000049"/>
<path d="M24.6094 14.7656H19.6875V16.1719H24.6094V14.7656Z" fill="#000049"/>
<path d="M39.6599 12.1981C39.5495 11.5418 39.2858 10.9207 38.8903 10.3855C38.4948 9.85019 37.9787 9.41575 37.3837 9.11745L35.5935 8.22329C35.7689 7.8504 35.8597 7.44334 35.8594 7.03125V3.51563C35.8594 3.39987 35.8308 3.28591 35.7762 3.18385C35.7215 3.0818 35.6426 2.99481 35.5463 2.9306L33.8448 1.79635C33.4951 1.56317 33.0887 1.42928 32.6688 1.40896C32.249 1.38865 31.8315 1.48267 31.4609 1.681C31.0903 1.87932 30.7805 2.17452 30.5645 2.53511C30.3484 2.8957 30.2344 3.30815 30.2344 3.72849V7.03125C30.2339 7.57561 30.3924 8.10826 30.6904 8.5638L29.9695 9.51193C29.232 10.4842 28.8314 11.6703 28.8281 12.8907V25.2381L26.7344 35.009C26.724 35.0574 26.7187 35.1067 26.7188 35.1562V42.8906C26.7188 43.0771 26.7928 43.2559 26.9247 43.3878C27.0566 43.5197 27.2354 43.5937 27.4219 43.5938H29.5312C29.6959 43.5938 29.8554 43.536 29.9818 43.4304C30.1082 43.3249 30.1936 43.1784 30.223 43.0164L31.6166 35.3517L32.2119 33.8635L32.3574 34.5911C32.3697 34.6523 32.39 34.7117 32.418 34.7676L36.6367 43.2051C36.6951 43.3219 36.7849 43.4201 36.896 43.4888C37.007 43.5574 37.135 43.5938 37.2656 43.5938H39.375C39.479 43.5938 39.5818 43.5707 39.6758 43.5262C39.7698 43.4817 39.8528 43.4168 39.9188 43.3364C39.9847 43.2559 40.032 43.1618 40.0572 43.0609C40.0824 42.96 40.0849 42.8547 40.0645 42.7527L37.9687 32.2741V25.3125H38.7258C38.8837 25.3125 39.037 25.2594 39.161 25.1616C39.285 25.0639 39.3725 24.9273 39.4094 24.7737L40.7618 19.1487C40.7838 19.057 40.7872 18.9618 40.7717 18.8688L39.6599 12.1981ZM33.0469 8.4375C32.674 8.43707 32.3166 8.28878 32.053 8.02515C31.7893 7.76152 31.641 7.40408 31.6406 7.03125V5.625H34.4531V7.03125C34.4527 7.40408 34.3044 7.76152 34.0408 8.02515C33.7771 8.28878 33.4197 8.43707 33.0469 8.4375ZM31.6406 3.72849C31.6406 3.56269 31.6856 3.40001 31.7708 3.25779C31.856 3.11556 31.9782 2.99913 32.1244 2.9209C32.2706 2.84266 32.4352 2.80557 32.6008 2.81357C32.7664 2.82156 32.9268 2.87436 33.0647 2.96631L34.4531 3.89191V4.21875H31.6406V3.72849ZM30.2344 12.8907C30.237 11.9777 30.537 11.0904 31.0889 10.3631L31.7325 9.51669C31.86 9.58432 31.9926 9.64197 32.129 9.68913L31.6776 11.0249C31.6531 11.0974 31.6406 11.1734 31.6406 11.25V15.4688H33.0469V11.3656L33.5784 9.79268C33.9688 9.71753 34.3386 9.56003 34.6633 9.33068L36.7554 10.3756C37.152 10.5744 37.4961 10.864 37.7598 11.2209C38.0234 11.5778 38.1992 11.9918 38.2728 12.4293L38.7021 15.0052L36.4045 15.9117L35.8123 13.8669L34.4614 14.2581L35.8594 19.0841V21.0938H30.2344V12.8907ZM31.6909 31.3795L30.2847 34.8952C30.2672 34.9388 30.2541 34.9842 30.2457 35.0305L28.9444 42.1875H28.125V35.2308L29.9479 26.7236L30.3908 27.1664C30.7838 27.5587 31.0515 28.0589 31.1599 28.6036L31.7172 31.39L31.6909 31.3795ZM36.5761 32.4817L38.5173 42.1875H37.7002L33.7179 34.2229L32.5388 28.3277C32.3763 27.5108 31.9748 26.7605 31.3852 26.172L30.2344 25.0213V22.5H35.8594V24.6094C35.8594 24.7959 35.9335 24.9747 36.0653 25.1065C36.1972 25.2384 36.376 25.3125 36.5625 25.3125V32.3438C36.5625 32.3901 36.5671 32.4363 36.5761 32.4817V32.4817ZM38.1716 23.9062H37.2656V18.9844C37.2656 18.9182 37.2563 18.8523 37.2379 18.7888L36.7975 17.2684L38.9385 16.4236L39.3611 18.959L38.1716 23.9062Z" fill="#000049"/>
</svg>
