<svg width="45" height="45" viewBox="0 0 45 45" fill="none" xmlns="http://www.w3.org/2000/svg">
<g clip-path="url(#clip0)">
<path d="M44.5825 6.09418C44.3266 5.96797 44.0212 5.99776 43.7944 6.17108L31.6018 15.494C31.001 15.9578 30.8406 16.7969 31.228 17.4496L29.3041 17.974L26.4967 16.7787C26.4478 16.7577 26.3967 16.742 26.3444 16.7318C23.6511 16.2172 22.2547 16.7136 21.5332 17.2665H13.8683C14.1311 16.6373 13.9379 15.91 13.3975 15.494L1.2056 6.17099C0.979014 5.9975 0.673594 5.96761 0.417744 6.094C0.161807 6.22039 -8.78505e-05 6.48107 4.01465e-08 6.76645V24.7665C-8.78505e-05 25.0357 0.144141 25.2842 0.37793 25.4175L5.02005 28.0696C5.24566 28.199 5.50125 28.267 5.76123 28.2667C6.14276 28.2656 6.50962 28.1197 6.78762 27.8585L7.65765 28.5537C7.15148 29.2 7.04092 30.0721 7.36972 30.8244C7.6986 31.5767 8.41386 32.0877 9.23212 32.1551C9.29584 32.161 9.35886 32.1632 9.42179 32.1632C9.5371 32.1621 9.65224 32.1522 9.76605 32.1334C9.8129 32.6687 10.0242 33.1764 10.371 33.587L10.3718 33.5878C10.8207 34.1204 11.4638 34.4514 12.1582 34.5069C12.2322 34.5135 12.3061 34.5164 12.3801 34.5164C12.3914 34.5164 12.4023 34.5137 12.4136 34.5135C12.4345 35.0011 12.6161 35.4679 12.9301 35.8414C13.3573 36.3449 13.9845 36.6349 14.6447 36.6339C14.9071 36.6334 15.1674 36.5862 15.4132 36.4946C15.6635 37.389 16.4455 38.0323 17.3715 38.1053C17.4352 38.1112 17.4982 38.1134 17.5612 38.1134C18.0772 38.1165 18.5776 37.9364 18.9733 37.6052L20.1495 36.6965L22.9189 38.5471C23.3475 38.8319 23.8508 38.9837 24.3654 38.9836C24.542 38.9836 24.7181 38.9662 24.8912 38.9315C26.0195 38.7069 26.8679 37.7705 26.9808 36.6257C27.7314 36.8548 28.5456 36.7306 29.1938 36.288C29.8419 35.8455 30.2542 35.1325 30.3143 34.35C31.183 34.637 32.1385 34.4484 32.833 33.8527C33.5274 33.257 33.8592 32.3412 33.7076 31.439C34.4592 31.3531 35.1352 30.9421 35.5576 30.3145C35.9762 29.6836 36.1027 28.9027 35.9044 28.1719L37.3833 26.6935L37.987 27.5987C38.4248 28.2544 39.295 28.46 39.9799 28.0696L44.6221 25.4175C44.8559 25.2841 45.0001 25.0356 45 24.7665V6.76645C45 6.48125 44.8382 6.22065 44.5825 6.09418ZM1.50003 24.3314V8.28406L9.87346 14.6869L3.00533 25.1914L1.50003 24.3314ZM5.76413 26.7675L4.3098 25.9366L11.068 15.6004L12.4864 16.6849L5.76413 26.7675ZM9.8906 30.4896C9.74364 30.6179 9.55011 30.6797 9.35596 30.6603C9.06627 30.6359 8.81824 30.443 8.72314 30.1682C8.62805 29.8935 8.7039 29.5886 8.9165 29.3903L10.7923 27.9401C10.9242 27.8277 11.0921 27.7661 11.2654 27.7665C11.2859 27.7665 11.3063 27.7672 11.3269 27.7687C11.6167 27.7932 11.8649 27.9863 11.9599 28.2612C12.055 28.5361 11.9791 28.8411 11.7664 29.0394L9.8906 30.4896ZM12.282 33.0121C11.8344 32.9751 11.4515 32.6755 11.3081 32.2498C11.1647 31.8242 11.2881 31.3539 11.6221 31.0536L13.9842 29.227C14.3314 28.9327 14.8217 28.8767 15.2264 29.085C15.6311 29.2933 15.8705 29.7248 15.8329 30.1784C15.8115 30.4561 15.6864 30.7155 15.4824 30.9052L14.8396 31.4067L13.1017 32.7499C12.8747 32.9437 12.5793 33.0382 12.282 33.0121ZM16.1125 34.1744L16.1109 34.1762L15.1099 34.9574C14.9614 35.0834 14.7691 35.1452 14.575 35.1291C14.3809 35.113 14.2013 35.0204 14.0757 34.8717C13.949 34.7237 13.8873 34.531 13.9043 34.337C13.9171 34.1527 14.0009 33.9805 14.1379 33.8565L15.8912 32.4882L16.4084 32.0884C16.4141 32.0836 16.418 32.0775 16.4237 32.0725L16.9533 31.6593C17.085 31.5467 17.2525 31.4848 17.4257 31.485C17.4466 31.4849 17.4673 31.4859 17.4879 31.4879C17.7783 31.5124 18.0266 31.7059 18.1213 31.9815C18.2159 32.2569 18.139 32.5624 17.9252 32.7601L16.1708 34.1294L16.1125 34.1744ZM19.9057 34.9896L18.03 36.4398C17.8835 36.5691 17.6896 36.631 17.4953 36.6105C17.2058 36.5861 16.9579 36.3933 16.8628 36.1188C16.7676 35.8444 16.8431 35.5396 17.0554 35.3412L17.0896 35.3145L18.9316 33.8904C19.2364 33.633 19.6908 33.666 19.9554 33.9645C20.2199 34.2629 20.1979 34.718 19.9057 34.9896ZM34.3088 29.484C33.9656 29.9921 33.2803 30.1349 32.7626 29.8063L32.7567 29.8026L27.8312 26.3983C27.6108 26.2451 27.3255 26.2214 27.0829 26.3361C26.8403 26.4507 26.6774 26.6863 26.6559 26.9538C26.6344 27.2212 26.7574 27.4798 26.9786 27.6318L31.745 30.9268L31.7473 30.9292C32.1253 31.18 32.3146 31.6341 32.2266 32.079C32.1386 32.524 31.7909 32.872 31.3459 32.9601C31.0576 33.0201 30.7574 32.9626 30.5117 32.8004L25.5825 29.3991C25.2415 29.1645 24.775 29.2504 24.5399 29.5909C24.3047 29.9315 24.3897 30.3982 24.73 30.6339L28.33 33.1177L28.3313 33.1191C28.8512 33.4841 28.9935 34.1928 28.655 34.7303C28.317 35.2428 27.6297 35.388 27.1132 35.0562L25.7867 34.1149L25.7861 34.1144H25.7859L24.434 33.1549C24.2155 32.9997 23.9309 32.9729 23.6872 33.0846C23.4436 33.1962 23.278 33.4294 23.2529 33.6961C23.2277 33.9629 23.3468 34.2229 23.5653 34.3781L24.9559 35.3647C25.023 35.4189 25.0866 35.4771 25.1467 35.5389C25.5709 35.9412 25.6174 36.6009 25.2538 37.0587C24.8902 37.5164 24.237 37.6204 23.7492 37.2982L21.2788 35.6472C21.6982 34.9997 21.7513 34.181 21.4194 33.4848C21.0874 32.7885 20.418 32.3143 19.6509 32.2324C19.6683 31.0649 18.7756 30.0846 17.6115 29.993C17.5153 29.9873 17.4187 29.9881 17.3225 29.9954C17.2985 29.0722 16.7875 28.2307 15.9796 27.7836C15.1716 27.3366 14.1872 27.3505 13.3922 27.8205C13.1678 27.1151 12.6079 26.5669 11.8978 26.3575C11.1879 26.1479 10.4201 26.3043 9.84858 26.7748L8.82431 27.5664L7.65624 26.6331L12.901 18.7665H19.4842C18.9149 19.2663 18.6492 20.0279 18.7842 20.7733C18.941 21.6781 19.6585 22.3814 20.5661 22.5201C21.9535 22.7165 23.368 22.5127 24.6436 21.9328L26.5559 23.1494C26.5987 23.174 26.644 23.1943 26.6908 23.21L34.0024 27.9189C34.1468 28.0182 34.2682 28.1473 34.3584 28.2975C34.3621 28.3063 34.3665 28.3144 34.3709 28.3232C34.5649 28.6922 34.541 29.1378 34.3088 29.484ZM35.0764 26.879C34.9967 26.8019 34.9124 26.7299 34.8238 26.6635L27.4065 21.8859C27.3724 21.8694 27.337 21.8557 27.3007 21.8448L25.0943 20.4415C24.8592 20.292 24.5605 20.2849 24.3186 20.4233C23.2401 20.983 22.0159 21.1985 20.8111 21.0407C20.53 21.0075 20.3053 20.7914 20.2611 20.5118C20.2057 20.2191 20.3484 19.9246 20.6126 19.7867C21.1743 19.4942 21.7021 19.1407 22.1866 18.7329C22.2385 18.6891 22.2812 18.6353 22.3118 18.5746C22.3356 18.545 22.362 18.5179 22.3909 18.4933C22.6107 18.3051 23.5167 17.7346 25.9842 18.1908L28.9564 19.4565C29.1112 19.5238 29.2845 19.5356 29.4471 19.4901L32.0977 18.7673L36.5348 25.421L35.0764 26.879ZM39.2359 26.7675L32.5129 16.6857L33.9321 15.6004L40.6902 25.9366L39.2359 26.7675ZM43.5 24.3314L41.9947 25.1913L35.1266 14.687L43.5 8.28397V24.3314Z" fill="#000049"/>
</g>
<defs>
<clipPath id="clip0">
<rect width="45" height="45" fill="white"/>
</clipPath>
</defs>
</svg>
