<svg width="45" height="45" viewBox="0 0 45 45" fill="none" xmlns="http://www.w3.org/2000/svg">
<path d="M23.2548 31.9362H21.7445V33.5772H23.2548V31.9362Z" fill="#000049"/>
<path d="M23.2548 35.2192H21.7445V36.8604H23.2548V35.2192Z" fill="#000049"/>
<path d="M23.2548 38.5005H21.7445V40.1417H23.2548V38.5005Z" fill="#000049"/>
<path d="M33.8236 41.8487C31.7826 41.8487 30.7036 42.3178 29.7516 42.7317C29.7181 42.7463 29.6846 42.7608 29.6512 42.7753L43.769 27.3063V24.0588L35.5633 20.4484V11.732L26.5372 8.12144V4.79259H28.1783V0H16.8215V4.79259H18.4626V8.12127L9.43645 11.7317V20.4481L1.2309 24.0586V27.306L15.1295 42.528C14.9658 42.5955 14.8074 42.664 14.6513 42.7318C13.7541 43.1215 12.9066 43.4897 11.1762 43.4897C9.44603 43.4897 8.59921 43.1215 7.70263 42.7317C6.7506 42.3177 5.67131 41.8485 3.62706 41.8485V43.3587C5.35727 43.3587 6.2041 43.7269 7.10058 44.1167C8.05279 44.5308 9.132 44.9999 11.1762 44.9999C13.2205 44.9999 14.2537 44.5511 15.2531 44.1169C15.7046 43.9206 16.1313 43.7353 16.6533 43.5963C17.2677 43.4342 17.9261 43.3586 18.7254 43.3586C20.4504 43.3586 21.2954 43.7265 22.19 44.1158C23.1419 44.5301 24.2209 44.9998 26.2664 44.9998C26.6872 44.9998 27.0612 44.9824 27.4069 44.947C28.7459 44.8155 29.5634 44.4602 30.354 44.1165C31.2504 43.7269 32.097 43.3588 33.8238 43.3588C35.554 43.3588 36.4009 43.727 37.2973 44.1168C38.2495 44.5308 39.3286 45 41.3729 45V43.4898C39.6427 43.4898 38.7959 43.1216 37.8994 42.7318C36.9472 42.3178 35.8681 41.8487 33.8236 41.8487ZM18.3317 3.28228V1.51022H26.6681V3.28228H18.3317ZM25.027 4.79259V7.5172L22.5 6.50637L19.9728 7.5172V4.79259H25.027ZM10.9466 12.7542L22.5 8.13296L34.0533 12.7542V19.7837L22.5 14.7003L10.9466 19.7837V12.7542ZM2.74103 26.72V25.0441L22.5 16.3501L42.2589 25.0441V26.72L40.5152 28.6283L22.5001 20.4396L4.48478 28.6284L2.74103 26.72ZM26.9751 43.4674C26.7561 43.482 26.5227 43.4897 26.2662 43.4897C24.5351 43.4897 23.6886 43.1213 22.7925 42.7312C21.842 42.3175 20.7646 41.8485 18.7253 41.8485C17.9911 41.8485 17.3318 41.9094 16.7216 42.0322L5.55529 29.8007L21.7447 22.4418V40.1488H23.255V22.4418L39.4447 29.8008L26.9751 43.4674Z" fill="#000049"/>
<path d="M29.5713 15.467L31.2125 16.2139L31.8381 14.8392L30.1969 14.0923L29.5713 15.467Z" fill="#000049"/>
<path d="M27.6032 14.5714L28.2282 13.1965L22.5 10.5928L16.7718 13.1965L17.3968 14.5714L22.5 12.2518L27.6032 14.5714Z" fill="#000049"/>
<path d="M15.4283 15.4664L14.8029 14.0918L13.1619 14.8384L13.7872 16.213L15.4283 15.4664Z" fill="#000049"/>
</svg>
