<svg width="418" height="422" viewBox="0 0 418 422" fill="none" xmlns="http://www.w3.org/2000/svg">
<path d="M394.685 161.737C378.421 165.557 372.202 171.77 363.4 174.665C354.54 135.765 332.191 103.291 302.321 81.3522C308.329 74.5216 316.309 71.0099 325.914 57.5803C338.945 39.3654 327.541 32.998 327.541 32.998C327.541 32.998 317.38 24.7781 305.612 43.842C296.944 57.889 296.734 66.6684 292.754 74.8497C261.334 55.0912 223.045 46.3311 183.914 52.6407C183.436 43.6104 186.536 35.4292 183.933 19.221C180.374 -2.94937 167.86 0.678161 167.86 0.678161C167.86 0.678161 154.906 2.10602 159.957 23.987C163.65 39.9829 169.601 46.3697 172.548 54.9175C133.972 64.0443 101.844 86.8128 80.2219 117.107C73.4672 111.048 69.9655 103.021 56.6668 93.3347C38.6034 80.1752 32.2888 91.6946 32.2888 91.6946C32.2888 91.6946 24.1374 101.94 43.0427 113.807C56.992 122.548 65.6984 122.76 73.8117 126.774C54.4471 158.515 45.9895 197.086 52.4188 236.487C43.1958 237.182 35.1017 233.805 18.6074 236.507C-3.37867 240.095 0.218685 252.715 0.218685 252.715C0.218685 252.715 1.63467 265.778 23.3337 260.684C39.6175 256.863 45.8364 250.631 54.6384 247.736C63.7849 286.424 86.3259 318.647 116.272 340.354C110.206 347.667 102.017 350.948 92.0855 364.84C79.0546 383.055 90.459 389.423 90.459 389.423C90.459 389.423 100.62 397.642 112.388 378.579C121.362 364.03 121.266 355.135 125.686 346.703C157.01 366.172 195.089 374.739 233.971 368.429C234.87 378.019 231.33 386.181 234.048 403.199C237.607 425.37 250.14 421.742 250.14 421.742C250.14 421.742 263.094 420.314 258.024 398.433C254.139 381.627 247.786 375.433 245.012 366.229C283.377 357.18 315.371 334.701 337.032 304.677C344.284 310.794 347.556 319.072 361.333 329.086C379.397 342.226 385.711 330.726 385.711 330.726C385.711 330.726 393.863 320.48 374.957 308.613C360.53 299.564 351.708 299.66 343.366 295.222C362.902 263.674 371.647 225.238 365.543 185.933C374.785 185.239 382.879 188.615 399.393 185.933C421.379 182.344 417.781 169.725 417.781 169.725C417.781 169.725 416.384 156.643 394.685 161.737ZM256.34 127.372C250.446 126.561 244.342 129.07 240.802 134.376C237.262 139.682 237.281 146.339 240.266 151.53L221.629 179.547C217.84 177.964 213.745 177.077 209.517 177L203.068 143.985C207.814 140.358 210.359 134.222 209.134 127.951C207.909 121.68 203.221 116.972 197.481 115.447L192.066 87.7197C220.672 83.7063 248.59 90.0351 271.858 104.024L256.34 127.372ZM183.704 118.187C178.958 121.815 176.394 127.951 177.638 134.222C178.862 140.493 183.551 145.201 189.291 146.725L195.739 179.739C191.855 181.418 188.392 183.811 185.483 186.724L157.699 167.931C158.503 161.988 156.015 155.832 150.753 152.263C145.491 148.693 138.89 148.712 133.742 151.723L110.589 136.074C126.854 114.212 150.313 97.6761 178.288 90.4403L183.704 118.187ZM125.897 163.512C125.093 169.455 127.581 175.61 132.843 179.18C138.105 182.75 144.707 182.73 149.854 179.72L177.829 198.649C176.394 202.412 175.629 206.464 175.629 210.631L142.372 217.23C138.775 212.445 132.709 209.86 126.471 211.114C120.252 212.349 115.602 217.076 114.072 222.865L87.1678 228.21C83.0347 199.459 89.1387 171.404 102.801 147.902L125.897 163.512ZM116.808 236.757C120.405 241.543 126.49 244.128 132.709 242.874C138.928 241.639 143.597 236.912 145.108 231.123L178.671 224.447C180.336 228.113 182.575 231.393 185.311 234.153L166.157 262.961C160.263 262.15 154.159 264.659 150.619 269.965C147.079 275.271 147.098 281.928 150.084 287.118L135.082 309.655C113.574 293.37 97.2711 269.965 90.019 242.044L116.808 236.757ZM161.737 295.029C167.63 295.84 173.734 293.331 177.274 288.025C180.814 282.719 180.795 276.062 177.81 270.872L197.098 241.871C200.638 243.221 204.408 244.012 208.311 244.07L215.027 278.397C210.282 282.024 207.737 288.141 208.962 294.431C210.186 300.702 214.874 305.41 220.615 306.935L225.781 333.35C197.5 337.325 169.907 331.17 146.811 317.509L161.737 295.029ZM234.373 304.195C239.099 300.567 241.663 294.431 240.439 288.16C239.214 281.889 234.526 277.181 228.786 275.657L222.069 241.33C225.647 239.767 228.843 237.606 231.617 235.001L260.377 254.451C259.574 260.394 262.061 266.549 267.323 270.119C272.605 273.689 279.187 273.669 284.334 270.659L306.646 285.748C290.4 307.243 267.189 323.471 239.539 330.629L234.373 304.195ZM292.16 258.889C292.964 252.946 290.477 246.791 285.214 243.221C279.952 239.652 273.351 239.671 268.203 242.681L239.635 223.366C241.128 219.758 241.969 215.86 242.123 211.847L275.685 205.171C279.283 209.956 285.348 212.542 291.586 211.287C297.805 210.053 302.474 205.325 303.986 199.537L330.794 194.211C334.583 222.826 328.306 250.708 314.529 273.997L292.16 258.889ZM301.269 185.644C297.671 180.859 291.606 178.273 285.368 179.527C279.13 180.762 274.48 185.49 272.968 191.278L239.712 197.877C238.162 194.018 235.923 190.564 233.187 187.631L251.958 159.421C257.851 160.232 263.956 157.723 267.495 152.417C271.035 147.111 271.016 140.454 268.031 135.264L283.511 111.974C304.981 128.491 321.188 152.128 328.192 180.299L301.269 185.644Z" fill="#F2F5F9"/>
</svg>
